<svg width="263" height="169" viewBox="0 0 263 169" fill="none" xmlns="http://www.w3.org/2000/svg">
<mask id="mask0" mask-type="alpha" maskUnits="userSpaceOnUse" x="4" y="6" width="90" height="138">
<path d="M23.0791 105.283C23.0791 119.556 4.81616 126.144 4.81616 142.98L87.5471 143.163C89.3734 140.601 93.7565 131.634 93.7565 121.752C93.7565 109.309 84.0771 101.257 84.0771 96.3159C84.0771 91.375 87.5471 86.2511 87.5471 80.7612C87.5471 73.0753 82.0682 69.5984 82.0682 54.4097C82.0682 47.6388 89.556 39.038 89.556 27.1432C89.556 19.4574 85.7208 6.09863 61.979 6.09863C36.0457 6.09863 17.6002 17.4444 17.6002 31.3521C17.6002 38.489 19.9744 41.5999 19.9744 50.9328C19.9744 60.2656 7.92085 67.5854 7.92085 79.2972C7.92085 91.009 23.0791 91.009 23.0791 105.283Z" fill="black"/>
</mask>
<g mask="url(#mask0)">
<path d="M5.11475 141.654C5.11475 126.458 23.2207 117.39 23.2207 104.357C23.2207 91.3251 7.60315 88.3751 7.60315 77.7053C7.60315 67.0355 20.1832 60.5642 20.1832 49.0534C20.1832 37.5426 6.16469 16.2286 46.2135 7.18618C59.6637 4.14958 89.4892 3.49154 89.4892 26.1569C89.4892 41.677 82.2103 40.3737 82.2103 57.181C82.2103 73.9882 91.1043 72.6432 85.1514 90.1406C79.8085 105.847 104.77 106.319 87.5242 141.654H5.11475Z" fill="#C8E6FF"/>
<path d="M89.0431 24.5361C87.717 24.5361 86.5451 26.3176 85.8323 29.0429C85.1195 26.3176 83.9475 24.5361 82.6214 24.5361C81.1091 24.5361 79.7959 26.8473 79.1377 30.237C77.3845 28.6449 75.747 27.9387 74.7195 28.5325C73.3325 29.3318 73.4384 32.2657 74.7645 35.7902C72.1477 36.0213 70.3335 36.8206 70.0927 38.066C69.8808 39.1702 70.95 40.4093 72.8316 41.5006C70.9629 42.6755 69.9225 43.9723 70.1826 45.0765C70.6771 47.1919 75.7277 47.8178 81.4623 46.4728C81.716 46.4151 93.3938 49.2815 95.9015 47.1822C98.4669 45.0316 92.9796 38.1719 92.9796 35.1931C92.9796 29.3093 91.2168 24.5361 89.0431 24.5361Z" fill="#E4F3FF"/>
<path d="M14.0473 24.5361C15.3734 24.5361 16.5453 26.3176 17.2581 29.0429C17.9709 26.3176 19.1429 24.5361 20.469 24.5361C21.9813 24.5361 23.2945 26.8473 23.9527 30.237C25.7059 28.6449 27.3434 27.9387 28.3709 28.5325C29.7579 29.3318 29.652 32.2657 28.3259 35.7902C30.9427 36.0213 32.7569 36.8206 32.9977 38.066C33.2096 39.1702 32.1404 40.4093 30.2588 41.5006C32.1275 42.6755 33.1679 43.9723 32.9078 45.0765C32.4133 47.1919 27.3627 47.8178 21.6281 46.4728C21.3744 46.4151 9.6966 49.2815 7.18893 47.1822C4.62347 45.0316 10.1108 38.1719 10.1108 35.1931C10.114 29.3093 11.8735 24.5361 14.0473 24.5361Z" fill="#E4F3FF"/>
<path d="M18.5458 43.041C20.2829 43.041 19.6472 45.3714 20.5815 48.9377C21.5159 45.3714 25.218 43.041 26.955 43.041C28.9329 43.041 30.6507 46.068 31.5144 50.5009C33.807 48.4177 35.9486 47.4932 37.2972 48.27C39.1113 49.3164 38.9764 53.1523 37.2394 57.7682C40.6653 58.0699 43.0381 59.1164 43.3528 60.747C43.6321 62.1947 42.2322 63.8157 39.7663 65.2441C42.213 66.7817 43.5743 68.4766 43.234 69.9242C42.5854 72.6912 35.9743 73.5129 28.4706 71.7539C28.1398 71.6769 12.8594 75.4325 9.57475 72.6816C6.21621 69.8697 13.3989 60.8883 13.3989 56.9946C13.3957 49.2876 15.701 43.041 18.5458 43.041Z" fill="#E4F3FF"/>
<path d="M84.2716 43.041C82.5345 43.041 83.1703 45.3714 82.2359 48.9377C81.3016 45.3714 77.5995 43.041 75.8624 43.041C73.8845 43.041 72.1667 46.068 71.303 50.5009C69.0105 48.4177 66.8689 47.4932 65.5203 48.27C63.7062 49.3164 63.841 53.1523 65.5781 57.7682C62.1521 58.0699 59.7793 59.1164 59.4647 60.747C59.1853 62.1947 60.5852 63.8157 63.0512 65.2441C60.6045 66.7817 59.2431 68.4766 59.5835 69.9242C60.232 72.6912 66.8432 73.5129 74.3469 71.7539C74.6776 71.6769 89.958 75.4325 93.2427 72.6816C96.6012 69.8697 89.4186 60.8883 89.4186 56.9946C89.4218 49.2876 87.1164 43.041 84.2716 43.041Z" fill="#E4F3FF"/>
<path d="M31.8867 128.653H3.5061V65.9602L14.4358 37.7705H23.1115V65.9602H31.8867V128.653Z" fill="#FCE8D4"/>
<path d="M71.1843 128.653H99.565V65.9602L88.6353 37.7705H79.9596V65.9602H71.1843V128.653Z" fill="#FCE8D4"/>
<path d="M95.5514 102.604C94.2253 102.604 93.0534 104.386 92.3406 107.111C91.6278 104.386 90.4558 102.604 89.1297 102.604C87.6174 102.604 86.3042 104.916 85.646 108.305C83.8928 106.713 82.2553 106.007 81.2278 106.601C79.8408 107.4 79.9467 110.334 81.2728 113.859C78.656 114.09 76.8418 114.889 76.601 116.134C76.3891 117.239 77.4583 118.478 79.3399 119.569C77.4712 120.744 76.4308 122.041 76.6909 123.145C77.1854 125.26 82.2361 125.886 87.9706 124.541C88.2243 124.483 99.9021 127.35 102.41 125.251C104.975 123.1 99.4879 116.24 99.4879 113.261C99.4847 107.378 97.7251 102.604 95.5514 102.604Z" fill="#4799FF"/>
<path d="M7.53899 102.604C8.86507 102.604 10.037 104.386 10.7498 107.111C11.4626 104.386 12.6346 102.604 13.9607 102.604C15.473 102.604 16.7862 104.916 17.4444 108.305C19.1976 106.713 20.8351 106.007 21.8625 106.601C23.2496 107.4 23.1437 110.334 21.8176 113.859C24.4344 114.09 26.2486 114.889 26.4894 116.134C26.7013 117.239 25.6321 118.478 23.7505 119.569C25.6192 120.744 26.6595 122.041 26.3995 123.145C25.905 125.26 20.8543 125.886 15.1198 124.541C14.8661 124.483 3.1883 127.35 0.680631 125.251C-1.88483 123.1 3.6025 116.24 3.6025 113.261C3.60571 107.378 5.36846 102.604 7.53899 102.604Z" fill="#4799FF"/>
<path d="M73.3194 59.457H29.8286V135.16H73.3194V59.457Z" fill="#FED9AF"/>
<path d="M77.6541 63.5912H25.4875L42.1903 46.8867H60.9513L77.6541 63.5912Z" fill="#F9AD45"/>
<path d="M42.1904 46.8861V32.5698L51.6078 22.2852L60.9514 32.5698V46.8861H42.1904Z" fill="#F9AD45"/>
<path d="M60.9514 38.4248H42.1904V46.8894H60.9514V38.4248Z" fill="#FED9AF"/>
<path d="M60.9514 43.1113H42.1904V44.283H60.9514V43.1113Z" fill="#F17848"/>
<path d="M60.9514 40.9453H42.1904V42.1169H60.9514V40.9453Z" fill="#F17848"/>
<path d="M73.9778 68.4863H29.1833V69.6579H73.9778V68.4863Z" fill="#F9AD45"/>
<path d="M73.9778 72.8223H29.1833V73.9939H73.9778V72.8223Z" fill="#F9AD45"/>
<path d="M23.1084 46.3662H4.44702V47.5378H23.1084V46.3662Z" fill="#F17848"/>
<path d="M23.1084 50.7031H4.44702V51.8748H23.1084V50.7031Z" fill="#F17848"/>
<path d="M24.0779 37.6895H13.9927V41.031H24.0779V37.6895Z" fill="#F17848"/>
<path d="M98.6946 46.3662H79.9434V47.5378H98.6946V46.3662Z" fill="#F9AD45"/>
<path d="M98.6946 50.7031H79.9434V51.8748H98.6946V50.7031Z" fill="#F9AD45"/>
<path d="M89.1521 37.6895H79.0669V41.031H89.1521V37.6895Z" fill="#F9AD45"/>
<path d="M100.756 123.457H1.62793V143.834H100.756V123.457Z" fill="#FED9AF"/>
<path d="M38.9282 122.557V95.9951C38.9282 89.0135 44.6435 83.2998 51.6271 83.2998C58.6107 83.2998 64.326 89.0135 64.326 95.9951V122.557H38.9282Z" fill="#F17848"/>
<path d="M38.9282 122.558L30.8015 148.359H72.4525L64.3259 122.558H38.9282Z" fill="#FFF0E1"/>
<path d="M39.9909 35.305L51.6077 23.6915L63.2246 35.305H66.2941L51.6077 20.626L36.9246 35.305H39.9909Z" fill="#F17848"/>
<path d="M51.6077 35.5141C53.2001 35.5141 54.491 34.2235 54.491 32.6315C54.491 31.0396 53.2001 29.749 51.6077 29.749C50.0153 29.749 48.7244 31.0396 48.7244 32.6315C48.7244 34.2235 50.0153 35.5141 51.6077 35.5141Z" fill="#FFF0E1"/>
<path d="M51.6077 22.2852V12.3857" stroke="#F17848" stroke-width="1.3511" stroke-miterlimit="10"/>
<path d="M51.3926 18.7838V11.7412L62.1553 15.0667L51.3926 18.7838Z" fill="#18A668"/>
</g>
<path d="M15.0685 93.04C17.3454 93.04 19.1912 91.1947 19.1912 88.9184C19.1912 86.6422 17.3454 84.7969 15.0685 84.7969C12.7916 84.7969 10.9458 86.6422 10.9458 88.9184C10.9458 91.1947 12.7916 93.04 15.0685 93.04Z" fill="#A8D7FF"/>
<mask id="mask1" mask-type="alpha" maskUnits="userSpaceOnUse" x="159" y="5" width="90" height="138">
<path d="M177.842 104.962C177.842 119.236 159.579 125.824 159.579 142.66L242.31 142.843C244.136 140.281 248.519 131.314 248.519 121.432C248.519 108.988 238.84 100.936 238.84 95.9956C238.84 91.0547 242.31 85.9308 242.31 80.4409C242.31 72.755 236.831 69.2781 236.831 54.0894C236.831 47.3185 244.319 38.7177 244.319 26.8229C244.319 19.1371 240.483 5.77832 216.742 5.77832C190.808 5.77832 172.363 17.1241 172.363 31.0318C172.363 38.1687 174.737 41.2796 174.737 50.6124C174.737 59.9453 162.684 67.2651 162.684 78.9769C162.684 90.6887 177.842 90.6887 177.842 104.962Z" fill="black"/>
</mask>
<g mask="url(#mask1)">
<path d="M159.839 141.655C159.839 126.459 177.945 117.391 177.945 104.358C177.945 91.326 162.327 88.3761 162.327 77.7063C162.327 67.0364 174.907 60.5652 174.907 49.0544C174.907 37.5435 160.889 16.2295 200.938 7.18715C214.388 4.15055 244.213 3.49251 244.213 26.1579C244.213 41.6779 236.934 40.3747 236.934 57.1819C236.934 73.9892 245.828 72.6442 239.875 90.1416C234.533 105.848 259.494 106.32 242.248 141.655H159.839Z" fill="#C8E6FF"/>
<path d="M191.231 65.2453C193.694 63.8168 195.094 62.1958 194.818 60.7481C194.503 59.1175 192.13 58.0711 188.704 57.7693C190.442 53.1534 190.576 49.3176 188.762 48.2711C187.417 47.4943 185.275 48.4156 182.98 50.502C182.713 49.1314 182.366 47.8988 181.952 46.8459C183.297 46.5024 184.187 45.9054 184.379 45.0804C184.64 43.973 183.599 42.6794 181.731 41.5046C183.612 40.4132 184.681 39.1741 184.469 38.0699C184.229 36.8245 182.418 36.0252 179.798 35.7941C181.124 32.2696 181.226 29.3357 179.843 28.5364C178.812 27.9426 177.178 28.6488 175.424 30.2409C174.766 26.8512 173.453 24.54 171.941 24.54C170.615 24.54 169.443 26.3216 168.73 29.0468C168.017 26.3216 166.845 24.54 165.519 24.54C163.345 24.54 161.582 29.3132 161.582 35.2002C161.582 38.1759 156.095 45.0387 158.661 47.1894C159.845 48.1812 163.079 48.0657 166.184 47.6741C165.365 50.1457 164.864 53.4134 164.864 56.9989C164.864 60.8958 157.681 69.874 161.04 72.6859C164.325 75.4368 179.605 71.6812 179.936 71.7582C187.439 73.5173 194.051 72.6987 194.699 69.9286C195.039 68.4777 193.678 66.7828 191.231 65.2453Z" fill="#E4F3FF"/>
<path d="M250.956 35.1973C250.956 29.3103 249.193 24.5371 247.02 24.5371C245.694 24.5371 244.522 26.3186 243.809 29.0439C243.096 26.3186 241.924 24.5371 240.598 24.5371C239.086 24.5371 237.772 26.8483 237.114 30.238C235.361 28.6458 233.724 27.9396 232.696 28.5335C231.309 29.3328 231.415 32.2666 232.741 35.7912C230.124 36.0223 228.31 36.8215 228.069 38.067C227.857 39.1712 228.927 40.4102 230.808 41.5016C228.939 42.6765 227.899 43.9733 228.159 45.0775C228.339 45.8511 229.132 46.4225 230.339 46.7756C229.916 47.8445 229.559 49.1028 229.286 50.4991C226.994 48.4158 224.852 47.4914 223.503 48.2682C221.689 49.3146 221.824 53.1505 223.561 57.7664C220.135 58.0681 217.762 59.1146 217.448 60.7452C217.168 62.1929 218.568 63.8139 221.034 65.2423C218.588 66.7799 217.226 68.4747 217.567 69.9224C218.215 72.6894 224.826 73.5111 232.33 71.7521C232.661 71.675 247.941 75.4307 251.226 72.6798C254.584 69.8679 247.402 60.8864 247.402 56.9928C247.402 53.3912 246.898 50.1075 246.069 47.6326C249.261 48.0531 252.658 48.2104 253.878 47.1864C256.447 45.0358 250.956 38.1761 250.956 35.1973ZM240.216 48.9391C239.988 48.066 239.59 47.2667 239.099 46.5573C239.211 46.5316 239.323 46.5091 239.439 46.4802C239.487 46.4706 239.937 46.5605 240.656 46.7049C240.559 47.3758 240.428 48.1237 240.216 48.9391Z" fill="#E4F3FF"/>
<path d="M186.611 128.654H158.23V65.9612L153.973 48.6115C153.973 48.6115 177.832 42.3168 177.832 65.9612H186.608V128.654H186.611Z" fill="#FCDEE7"/>
<path d="M225.558 128.654H253.936V65.9612L258.193 48.6115C258.193 48.6115 234.334 42.3168 234.334 65.9612H225.558V128.654Z" fill="#FCDEE7"/>
<path d="M247.142 64.7998H232.715V65.9714H247.142V64.7998Z" fill="#F0747B"/>
<path d="M179.464 64.7998H163.303V65.9714H179.464V64.7998Z" fill="#F0747B"/>
<path d="M250.275 102.606C248.949 102.606 247.777 104.388 247.064 107.113C246.352 104.388 245.18 102.606 243.854 102.606C242.341 102.606 241.028 104.918 240.37 108.307C238.617 106.715 236.979 106.009 235.952 106.603C234.565 107.402 234.671 110.336 235.997 113.86C233.38 114.092 231.566 114.891 231.325 116.136C231.113 117.241 232.182 118.48 234.064 119.571C232.195 120.746 231.155 122.043 231.415 123.147C231.909 125.262 236.96 125.888 242.694 124.543C242.948 124.485 254.626 127.352 257.134 125.253C259.699 123.102 254.212 116.242 254.212 113.263C254.212 107.38 252.449 102.606 250.275 102.606Z" fill="#4799FF"/>
<path d="M162.266 102.606C163.592 102.606 164.764 104.388 165.477 107.113C166.19 104.388 167.362 102.606 168.688 102.606C170.2 102.606 171.513 104.918 172.172 108.307C173.925 106.715 175.562 106.009 176.59 106.603C177.977 107.402 177.871 110.336 176.545 113.86C179.162 114.092 180.976 114.891 181.217 116.136C181.429 117.241 180.359 118.48 178.478 119.571C180.346 120.746 181.387 122.043 181.127 123.147C180.632 125.262 175.582 125.888 169.847 124.543C169.593 124.485 157.916 127.352 155.408 125.253C152.842 123.102 158.33 116.242 158.33 113.263C158.33 107.38 160.093 102.606 162.266 102.606Z" fill="#4799FF"/>
<path d="M225.87 33.4355H186.72V113.475H225.87V33.4355Z" fill="#6FB6FF"/>
<path d="M225.87 24.582H186.72V104.622H225.87V24.582Z" fill="#FCDEE7"/>
<path d="M228.044 24.582H184.553V26.9221H228.044V24.582Z" fill="#ED455C"/>
<path d="M218.279 33.4355H194.314V113.475H218.279V33.4355Z" fill="#F0747B"/>
<path d="M225.87 59.458H186.72V130.825H225.87V59.458Z" fill="#F0747B"/>
<path d="M228.044 63.7949H184.553V135.161H228.044V63.7949Z" fill="#F8C4D1"/>
<path d="M228.705 68.4873H183.911V69.6589H228.705V68.4873Z" fill="#F0747B"/>
<path d="M228.705 72.8242H183.911V73.9958H228.705V72.8242Z" fill="#F0747B"/>
<path d="M255.48 123.458H156.352V143.835H255.48V123.458Z" fill="#F8C4D1"/>
<path d="M219.05 85.1533H193.656V123.422H219.05V85.1533Z" fill="#F0747B"/>
<path d="M221.111 81.9307H191.501V85.2722H221.111V81.9307Z" fill="#ED455C"/>
<path d="M193.655 123.423L185.529 148.361H227.177L219.05 123.423H193.655Z" fill="#FFF0E1"/>
<path d="M206.187 14.5605V25.4037" stroke="#F0747B" stroke-width="1.3511" stroke-miterlimit="10"/>
<path d="M199.682 37.7646V44.2712" stroke="#FFF0E1" stroke-width="3.3779" stroke-miterlimit="10"/>
<path d="M204.02 37.7646V44.2712" stroke="#FFF0E1" stroke-width="3.3779" stroke-miterlimit="10"/>
<path d="M208.358 37.7646V44.2712" stroke="#FFF0E1" stroke-width="3.3779" stroke-miterlimit="10"/>
<path d="M212.696 37.7646V44.2712" stroke="#FFF0E1" stroke-width="3.3779" stroke-miterlimit="10"/>
<path d="M199.682 48.6084V55.1149" stroke="#FFF0E1" stroke-width="3.3779" stroke-miterlimit="10"/>
<path d="M204.02 48.6084V55.1149" stroke="#FFF0E1" stroke-width="3.3779" stroke-miterlimit="10"/>
<path d="M208.358 48.6084V55.1149" stroke="#FFF0E1" stroke-width="3.3779" stroke-miterlimit="10"/>
<path d="M212.696 48.6084V55.1149" stroke="#FFF0E1" stroke-width="3.3779" stroke-miterlimit="10"/>
<path d="M215.518 14.5605H205.972V21.7155H215.518V14.5605Z" fill="#18A668"/>
</g>
<path d="M4.63332 104.108C5.17241 104.108 5.60942 103.671 5.60942 103.132C5.60942 102.593 5.17241 102.156 4.63332 102.156C4.09424 102.156 3.65723 102.593 3.65723 103.132C3.65723 103.671 4.09424 104.108 4.63332 104.108Z" fill="#E4F3FF"/>
<path d="M249.986 55.8149C251.604 55.8149 252.915 54.5042 252.915 52.8874C252.915 51.2706 251.604 49.96 249.986 49.96C248.369 49.96 247.058 51.2706 247.058 52.8874C247.058 54.5042 248.369 55.8149 249.986 55.8149Z" fill="#E4F3FF"/>
<path d="M184.806 17.2116C187.472 17.2116 189.632 15.0516 189.632 12.387C189.632 9.72252 187.472 7.5625 184.806 7.5625C182.141 7.5625 179.98 9.72252 179.98 12.387C179.98 15.0516 182.141 17.2116 184.806 17.2116Z" fill="#E4F3FF"/>
<path d="M171.822 94.6518C173.439 94.6518 174.75 93.3411 174.75 91.7243C174.75 90.1075 173.439 88.7969 171.822 88.7969C170.205 88.7969 168.894 90.1075 168.894 91.7243C168.894 93.3411 170.205 94.6518 171.822 94.6518Z" fill="#A8D7FF"/>
<path d="M262.024 100.291C262.563 100.291 263 99.8546 263 99.3157C263 98.7767 262.563 98.3398 262.024 98.3398C261.485 98.3398 261.048 98.7767 261.048 99.3157C261.048 99.8546 261.485 100.291 262.024 100.291Z" fill="#A8D7FF"/>
<path d="M5.11477 52.8354C5.65385 52.8354 6.09086 52.3985 6.09086 51.8596C6.09086 51.3207 5.65385 50.8838 5.11477 50.8838C4.57569 50.8838 4.13867 51.3207 4.13867 51.8596C4.13867 52.3985 4.57569 52.8354 5.11477 52.8354Z" fill="#E4F3FF"/>
<path d="M252.266 45.1958C252.805 45.1958 253.242 44.7589 253.242 44.22C253.242 43.681 252.805 43.2441 252.266 43.2441C251.727 43.2441 251.29 43.681 251.29 44.22C251.29 44.7589 251.727 45.1958 252.266 45.1958Z" fill="#E4F3FF"/>
<path d="M138.319 145.935C155.264 145.935 169 143.48 169 140.453C169 137.425 155.264 134.971 138.319 134.971C121.375 134.971 107.639 137.425 107.639 140.453C107.639 143.48 121.375 145.935 138.319 145.935Z" fill="#FFF0E1"/>
<path d="M132.744 127.269C132.872 129.62 132.964 132.269 133 135.248C133.006 135.741 133.013 136.244 133.016 136.759C133.022 137.538 132.805 137.828 131.328 138.531C132.19 139.746 134.103 138.729 135.206 137.983C135.282 137.331 135.389 136.436 135.532 135.199C135.745 133.384 136.044 130.841 136.464 127.269H132.744Z" fill="#994E34"/>
<path d="M144.056 127.269C144.433 129.86 144.683 131.675 145.174 135.425C145.229 135.845 145.286 136.286 145.347 136.755C145.411 137.243 145.308 137.733 145.095 138.214H145.098L145.095 138.22C144.839 138.796 144.418 139.359 143.925 139.88C143.632 140.389 143.468 140.84 143.739 140.928C145.692 141.558 147.434 137.977 147.434 137.977C147.465 137.362 147.498 136.57 147.535 135.586C147.605 133.622 147.681 130.89 147.733 127.269H144.056Z" fill="#994E34"/>
<path d="M143.852 73.6928C143.568 73.7964 143.233 73.8573 142.852 73.8573C141.238 73.8573 140.339 73.4614 139.769 72.8857H131.401C131.09 73.3852 130.621 73.8329 129.984 74.0735C130.146 77.9535 130.344 82.0346 130.344 85.5522V81.4438H149.32C149.32 80.3199 149.32 79.0621 149.32 77.7617C147.309 76.9516 145.302 75.246 143.852 73.6928Z" fill="#FED9AF"/>
<path d="M134.32 62.2333H137.54C137.506 61.143 137.314 59.0537 136.379 57.5645C135.267 57.7106 134.146 58.0974 133.18 58.4842C132.321 58.8284 131.587 59.1756 131.099 59.3552C131.057 59.3705 131.014 59.3918 130.975 59.4162C131.017 59.3948 131.06 59.3735 131.099 59.3552C131.099 59.3552 130.837 60.5278 130.518 62.2333H134.32Z" fill="#FED9AF"/>
<path d="M146.584 67.1646V59.5629C146.584 59.5629 145.716 59.1304 143.675 58.6066C142.633 58.3386 141.29 58.0493 139.596 57.7812C139.69 59.0573 139.504 60.571 138.185 62.2339H139.081L139.419 62.9922L141.893 68.5686C144.123 68.7574 144.784 70.5817 144.982 71.5563C145.021 71.6842 145.043 71.8274 145.049 71.9766C145.061 72.0923 145.064 72.1624 145.064 72.1624C145.064 72.1624 147.361 73.8314 149.326 74.4709C149.326 72.2477 149.326 70.0884 149.326 68.3981C148.497 67.8164 147.553 67.3809 146.584 67.1646Z" fill="#FED9AF"/>
<path d="M149.6 38.7887C149.6 38.2101 149.235 37.6649 148.589 37.1837C149.009 36.4954 149.146 35.8528 148.93 35.3168C148.705 34.7503 148.111 34.3727 147.264 34.1717C147.413 33.3128 147.297 32.6184 146.868 32.189C146.459 31.7809 145.814 31.653 145.015 31.7687C144.827 30.983 144.467 30.4348 143.937 30.2064C143.376 29.9658 142.691 30.115 141.948 30.5749C141.445 29.8622 140.872 29.4541 140.263 29.4541C139.684 29.4541 139.139 29.8196 138.658 30.4652C137.969 30.0449 137.326 29.9079 136.79 30.1241C136.224 30.3495 135.846 30.9434 135.645 31.79C134.786 31.6408 134.091 31.7565 133.661 32.186C133.253 32.5941 133.125 33.2397 133.241 34.0377C132.455 34.2265 131.907 34.5859 131.678 35.1158C131.438 35.6762 131.587 36.3614 132.047 37.1045C131.334 37.604 130.926 38.1766 130.926 38.7887C130.926 39.3674 131.291 39.9126 131.937 40.3938C131.517 41.0821 131.38 41.7247 131.596 42.2607C131.821 42.8272 132.415 43.2048 133.262 43.4058C133.113 44.2647 133.229 44.959 133.658 45.3885C133.85 45.5803 134.097 45.7083 134.383 45.7783C133.975 46.625 134.222 47.7305 133.61 49.5487C134.484 49.1284 135.346 48.2513 135.757 46.5031C135.894 46.7833 136.065 47.0087 136.269 47.1732C137.421 50.4867 140.434 49.902 140.714 49.838C140.674 49.2472 140.574 48.6655 140.421 48.1082C140.939 48.0472 141.43 47.697 141.869 47.1092C142.557 47.5295 143.2 47.6666 143.736 47.4503C144.303 47.2249 144.68 46.6311 144.881 45.7844C145.741 45.9336 146.435 45.8179 146.865 45.3885C147.273 44.9804 147.401 44.3347 147.285 43.5368C148.071 43.3479 148.619 42.9886 148.848 42.4586C149.089 41.8983 148.939 41.21 148.479 40.4699C149.192 39.9704 149.6 39.3979 149.6 38.7887Z" fill="#414042"/>
<path d="M131.331 138.528C130.953 138.707 130.496 138.911 129.936 139.161C127.127 140.407 125.454 140.87 125.454 140.87C125.205 141.007 125.272 141.381 125.555 141.424C130.295 142.149 135.005 139.7 135.005 139.7C135.005 139.7 135.005 139.7 135.206 137.979C134.106 138.726 132.193 139.743 131.331 138.528Z" fill="#F9AD45"/>
<path d="M145.099 138.214C145.099 138.214 145.099 138.218 145.095 138.218C145.095 138.218 145.103 138.214 145.099 138.214Z" fill="#F9AD45"/>
<path d="M143.742 140.928C143.471 140.839 143.635 140.389 143.928 139.88C142.289 141.616 139.843 142.925 139.843 142.925C139.593 143.063 139.66 143.437 139.943 143.48C144.683 144.205 146.715 141.683 147.34 139.703C147.34 139.703 147.379 139.164 147.437 137.979C147.434 137.976 145.692 141.558 143.742 140.928Z" fill="#F9AD45"/>
<path d="M149.323 89.1504H146.484H130.347C130.347 108.803 125.339 127.269 125.339 127.269H132.748H136.467H144.059H147.733H154.673C155.626 127.269 156.114 126.407 156.114 125.453C156.114 118.263 156.153 94.8334 149.323 89.1504Z" fill="#F9AD45"/>
<path d="M130.347 81.4443V85.5528C130.347 86.9416 130.347 88.1294 130.347 89.1496H146.484H149.323V85.5528C149.323 84.7914 149.323 83.296 149.323 81.4443H130.347Z" fill="#18A668"/>
<path d="M145.043 72.1651L145.061 72.162C145.061 72.162 145.058 72.0917 145.046 71.9756C145.046 71.9909 145.049 72.0061 145.049 72.0214C145.049 72.0703 145.046 72.1192 145.043 72.1651Z" fill="#994E34"/>
<path d="M144.385 73.4361L144.413 73.3838C144.385 73.4053 144.358 73.43 144.327 73.4484L144.385 73.4361Z" fill="#994E34"/>
<path d="M145.04 72.2016L145.062 72.1611L145.043 72.1642C145.04 72.1767 145.04 72.1891 145.04 72.2016Z" fill="#994E34"/>
<path d="M141.893 68.5682L139.419 62.9917L139.081 62.2334H138.182H137.54H134.319H130.518H129.969H127.444H123.751L125.147 65.3734L127.319 70.2676L127.593 70.8858L127.864 71.498C127.952 71.6655 128.099 71.7569 128.288 71.7965C128.577 71.8604 128.964 71.7995 129.375 71.6899C129.543 71.6442 129.716 71.5924 129.887 71.5376C130.03 71.4919 130.17 71.4432 130.31 71.3975C131.142 71.1173 131.858 70.8767 131.87 71.3244C131.882 71.7934 131.727 72.369 131.404 72.8868H139.773C139.279 72.3873 139.026 71.7538 138.776 71.1203C138.487 70.3864 139.83 70.9802 141.445 70.9863C141.905 70.9894 142.386 70.9467 142.856 70.8066C142.865 70.8036 142.874 70.8006 142.886 70.8006L141.893 68.5682Z" fill="#FFF0E1"/>
<path d="M144.979 71.5547C145.012 71.7252 145.034 71.8684 145.046 71.975C145.043 71.8257 145.018 71.6856 144.979 71.5547Z" fill="#994E34"/>
<path d="M145.04 72.2012L144.412 73.3829C144.784 73.0844 144.997 72.6702 145.04 72.2012Z" fill="#994E34"/>
<path d="M143.76 73.5935C143.791 73.627 143.821 73.6605 143.852 73.694C144.028 73.63 144.19 73.5478 144.327 73.4473L143.76 73.5935Z" fill="#994E34"/>
<path d="M139.593 57.7805C139.48 56.2456 138.962 55.0517 139.526 54.3421C140.489 53.1269 140.824 51.464 140.714 49.8407C140.434 49.9047 137.421 50.4895 136.269 47.1759C136.062 47.0114 135.891 46.7861 135.757 46.5059C135.346 48.254 134.484 49.1311 133.61 49.5514C133.43 50.0844 133.177 50.6783 132.812 51.3422C129.68 57.0526 135.687 56.7207 135.687 56.7207C135.952 56.9643 136.181 57.2506 136.376 57.5643C137.308 59.0536 137.503 61.1398 137.537 62.2331H138.179C139.505 60.5703 139.687 59.0597 139.593 57.7805ZM135.118 52.9046L133.003 52.2285C133.003 52.2285 134.131 51.86 135.118 49.5727C135.547 48.5738 135.118 52.9046 135.118 52.9046Z" fill="#994E34"/>
<path d="M130.517 62.2326C130.837 60.5301 131.099 59.3545 131.099 59.3545C131.06 59.3728 131.017 59.3971 130.974 59.4154C129.914 59.924 128.656 60.8956 127.444 62.2295H129.969H130.517V62.2326Z" fill="#994E34"/>
<path d="M146.584 59.5615V67.1632C147.553 67.3795 148.501 67.815 149.326 68.3936C150.715 69.3713 151.76 70.7722 151.998 72.2646C152.403 74.8167 150.983 75.0086 149.326 74.4665C147.361 73.8269 145.064 72.158 145.064 72.158L145.043 72.1975C145 72.6666 144.787 73.0808 144.415 73.3792L144.388 73.431L144.33 73.4462C144.19 73.5437 144.031 73.6259 143.855 73.6929C145.305 75.2462 147.312 76.9517 149.326 77.7587C150.895 78.3892 152.47 78.4744 153.78 77.512C158.161 74.2868 155.556 63.1918 146.584 59.5615Z" fill="#994E34"/>
<path d="M144.327 73.4502C144.357 73.4288 144.385 73.4075 144.412 73.3862L145.04 72.2045C145.04 72.1923 145.04 72.1802 145.043 72.168C145.046 72.1223 145.049 72.0736 145.049 72.0279C145.049 72.0127 145.046 71.9974 145.046 71.9822C145.034 71.8787 145.015 71.7325 144.979 71.5619C144.784 70.5873 144.12 68.76 141.89 68.5742L142.88 70.8066C142.871 70.8097 142.862 70.8127 142.849 70.8127C142.377 70.9498 141.896 70.9924 141.439 70.9924C139.824 70.9863 138.481 70.3924 138.77 71.1264C139.02 71.7599 139.273 72.3934 139.766 72.8928C140.336 73.4684 141.235 73.8644 142.849 73.8644C143.233 73.8644 143.565 73.8065 143.849 73.6999C143.818 73.6664 143.788 73.6329 143.757 73.5994L144.327 73.4502Z" fill="#994E34"/>
<path d="M130.311 71.4011C130.17 71.4468 130.03 71.4955 129.887 71.5412C129.716 71.596 129.543 71.6508 129.375 71.6934C128.964 71.8031 128.577 71.864 128.288 71.8C128.102 71.7574 127.953 71.666 127.864 71.5016L127.593 70.8894C127.359 71.1666 127.215 71.5199 127.215 71.9097C127.215 72.2782 127.343 72.6102 127.554 72.8812C126.761 73.8284 125.957 74.27 125.957 74.27C126.076 72.8264 126.774 71.2853 127.322 70.2712L125.15 65.377C123.304 68.5291 122.113 72.6254 122.935 77.1328C123.45 79.9591 127.355 77.6932 128.824 74.2639C128.851 74.267 128.882 74.27 128.909 74.27C129.314 74.27 129.674 74.1969 129.991 74.0751C130.627 73.8314 131.097 73.3868 131.407 72.8873C131.73 72.3696 131.886 71.794 131.873 71.3249C131.858 70.8772 131.142 71.1178 130.311 71.4011Z" fill="#994E34"/>
<path d="M135.118 49.5762C134.131 51.8635 133.003 52.232 133.003 52.232L135.118 52.9081C135.118 52.905 135.547 48.5742 135.118 49.5762Z" fill="#F0747B"/>
<path d="M90.7954 163.295C110.565 163.295 126.591 160.432 126.591 156.9C126.591 153.367 110.565 150.504 90.7954 150.504C71.0261 150.504 55 153.367 55 156.9C55 160.432 71.0261 163.295 90.7954 163.295Z" fill="#FFF0E1"/>
<path d="M98.3717 64.7206L100.069 64.1054C100.069 64.1054 99.1455 64.1054 98.1006 63.21C98.1371 63.411 98.1737 63.615 98.2133 63.8221C98.2681 64.1328 98.3199 64.4312 98.3717 64.7206Z" fill="#F0747B"/>
<path d="M80.7331 121.754V117.347C80.724 118.58 80.721 120.054 80.7331 121.754Z" fill="#F0747B"/>
<path d="M92.1724 116.24C92.1724 116.244 92.1724 116.247 92.1759 116.251L92.1724 116.24Z" fill="#F0747B"/>
<path d="M80.9555 133.324C81.0439 136.214 81.1688 139.385 81.3333 142.811H86.107C86.3721 139.796 86.7102 136.574 87.1124 133.324C87.5998 129.401 88.1847 125.439 88.861 121.754H80.7332C80.7514 124.873 80.8124 128.753 80.9555 133.324Z" fill="#F0747B"/>
<path d="M101.43 116.956V121.753H93.3086C94.5454 128.493 95.4776 136.155 96.0626 142.81H100.836C101.415 130.685 101.467 121.795 101.43 116.956Z" fill="#F0747B"/>
<path d="M81.769 150.826C81.8786 152.623 82.0005 154.475 82.1345 156.381C80.654 156.5 79.012 156.491 78.0005 156.053C75.801 155.096 76.3799 156.607 77.3791 157.365C78.0341 157.862 81.3211 159.464 85.382 159.464V156.424V155.925C85.382 154.508 85.4369 152.73 85.5404 150.689C85.6623 148.353 85.8481 145.676 86.101 142.813H81.3303C81.4521 145.344 81.5984 148.018 81.769 150.826Z" fill="#21567C"/>
<path d="M104.166 156.053C103.155 156.494 101.513 156.5 100.032 156.381C100.032 156.375 100.032 156.366 100.032 156.36C100.163 154.469 100.285 152.635 100.395 150.851C100.568 148.034 100.711 145.353 100.833 142.813H96.0596C96.3124 145.685 96.5013 148.366 96.6201 150.705C96.7237 152.739 96.7785 154.515 96.7785 155.928V156.424V159.464C100.839 159.464 104.126 157.865 104.781 157.365C105.787 156.607 106.366 155.096 104.166 156.053Z" fill="#21567C"/>
<path d="M89.9942 116.24C89.5921 117.973 89.2113 119.825 88.8579 121.756H88.9432L89.9942 116.24Z" fill="#21567C"/>
<path d="M103.289 83.7385L101.93 73.9684C100.797 73.4263 99.5631 73.0395 98.1161 72.8232C97.9759 74.681 97.1443 76.3439 95.8739 77.5591C96.1268 78.287 96.2852 79.1611 96.2852 80.2818C96.2852 85.4197 91.7034 89.4825 84.8002 89.4825C82.7499 89.4825 79.9229 87.448 79.9229 83.0441C79.9229 78.6403 81.6258 79.2555 81.6258 76.4931C81.6258 75.9937 81.5283 75.5856 81.373 75.2292C79.6456 76.152 78.0188 77.4068 76.6541 79.0971C77.7934 82.6391 79.0668 86.8633 79.3958 88.9952C80.2092 94.1026 79.9442 99.3257 77.3395 109.541L80.7271 109.559L101.424 109.671L106.801 109.702L103.289 83.7385Z" fill="#FEF0E1"/>
<path d="M92.1755 116.25L93.3088 121.756C92.9554 119.829 92.5777 117.98 92.1755 116.25Z" fill="#21567C"/>
<path d="M80.7332 109.556V117.346V121.753H88.858C89.2113 119.822 89.5921 117.971 89.9943 116.238H92.1725L92.1755 116.247C92.5776 117.977 92.9554 119.825 93.3088 121.753H101.431V116.956V109.665L80.7332 109.556Z" fill="#21567C"/>
<path d="M98.2103 63.8191C98.1707 63.612 98.1341 63.4079 98.0976 63.2069C97.9788 62.5521 97.8752 61.9339 97.7686 61.3613C97.6345 61.6933 97.467 62.01 97.2659 62.3055C97.01 62.6801 96.7054 63.0151 96.3642 63.3105C95.9499 63.6638 95.4807 63.9531 94.9659 64.1602C94.3474 66.5814 92.9065 68.0951 92.9065 70.763C92.9065 71.4939 92.9979 72.1 93.1533 72.6299C93.2721 73.041 93.4274 73.4035 93.6041 73.7415C94.2896 75.0328 95.3071 75.9282 95.8707 77.5576C97.141 76.3455 97.9727 74.6826 98.1128 72.8218C97.2263 72.6878 96.2636 72.6208 95.1913 72.6208C94.8745 72.6208 94.5028 72.6177 94.0946 72.6208C94.2378 71.698 94.4937 70.5772 96.0991 70.7965C97.8569 71.0371 99.6391 72.1426 98.3657 64.7236C98.32 64.4313 98.2682 64.1328 98.2103 63.8191Z" fill="#F0747B"/>
<path d="M106.396 70.3588C106.396 67.9863 102.286 68.6015 102.286 68.6015C99.9225 67.3681 100.334 63.8748 99.6148 65.4159C98.8958 66.9569 101.568 70.4502 101.568 70.4502C100.334 71.6837 102.698 72.6186 103.624 72.6186C104.55 72.6186 106.503 72.6186 106.503 72.6186C117.808 75.5881 112.873 82.9157 108.97 79.3767C106.341 76.9921 104.367 75.1282 101.933 73.9678L103.292 83.738C104.87 84.8618 107.825 86.2719 109.379 86.7196C111.846 87.4322 117.805 87.5419 117.805 79.7879C117.802 70.5294 106.396 70.3588 106.396 70.3588Z" fill="#F0747B"/>
<path d="M76.6571 79.0908C76.1362 79.7365 75.6518 80.4431 75.2162 81.2258C74.482 82.5445 66.1135 98.8047 70.2231 118.22C70.2231 118.22 68.4805 120.249 69.6077 121.199C71.3411 122.664 74.2322 124.384 74.2322 121.896C74.2322 118.875 72.0936 118.698 72.0936 118.698C70.2231 107.122 79.3989 88.9859 79.3989 88.9859C79.0699 86.86 77.7965 82.6328 76.6571 79.0908Z" fill="#F0747B"/>
<path d="M93.0773 54.4061C93.056 54.4061 93.0347 54.4091 93.0103 54.4091C91.5115 52.1493 89.5161 51.3818 87.1185 51.3818C83.539 51.3818 81.9244 54.1442 81.9244 56.9613C81.9244 59.2851 83.3928 60.0434 83.3928 62.7966C83.3928 65.1569 78.6921 64.764 78.6921 70.3191C78.6921 73.0693 80.6632 73.5992 81.376 75.2255C81.5314 75.5819 81.6289 75.993 81.6289 76.4894C81.6289 79.2518 79.9259 78.6366 79.9259 83.0404C79.9259 87.4443 82.75 89.4787 84.8033 89.4787C91.7064 89.4787 96.2882 85.419 96.2882 80.2781C96.2882 79.1573 96.1268 78.2833 95.877 77.5554C95.3134 75.923 94.2928 75.0276 93.6104 73.7393C93.4307 73.4043 93.2784 73.0388 93.1596 72.6277C93.0073 72.0977 92.9128 71.4917 92.9128 70.7607C92.9128 68.0928 94.3538 66.5792 94.9722 64.158C95.484 63.9509 95.9562 63.6646 96.3705 63.3083C96.7147 63.0159 97.0194 62.6778 97.2722 62.3032C97.4703 62.0108 97.6378 61.6941 97.7749 61.3591C98.0125 60.7743 98.1466 60.1348 98.1466 59.4617C98.1405 56.672 95.8739 54.4061 93.0773 54.4061Z" fill="#994E34"/>
</svg>
